<svg xmlns="http://www.w3.org/2000/svg" viewBox="0 0 420 128" role="img" aria-labelledby="title desc">
  <title id="title">PoDorel logo</title>
  <desc id="desc">PoDorel wordmark with pod-shaped P mark.</desc>
  <defs>
    <linearGradient id="podorel-logo-bg" x1="20" y1="14" x2="108" y2="114" gradientUnits="userSpaceOnUse">
      <stop offset="0" stop-color="#46d7df"/>
      <stop offset="0.58" stop-color="#007981"/>
      <stop offset="1" stop-color="#ffae63"/>
    </linearGradient>
    <filter id="podorel-logo-shadow" x="-20%" y="-20%" width="140%" height="140%">
      <feDropShadow dx="0" dy="10" stdDeviation="10" flood-color="#001517" flood-opacity="0.22"/>
    </filter>
  </defs>
  <g transform="translate(4 0)">
    <path filter="url(#podorel-logo-shadow)" fill="url(#podorel-logo-bg)" d="M64 8 110 34v60l-46 26-46-26V34L64 8Z"/>
    <path fill="#041112" opacity="0.16" d="M64 8 110 34 64 60 18 34 64 8Z"/>
    <path fill="#ffffff" d="M39 34h33c18 0 30 11 30 28s-12 28-30 28H57v17H39V34Zm18 16v24h14c8 0 13-5 13-12s-5-12-13-12H57Z"/>
    <circle cx="37" cy="34" r="7" fill="#fff6ed"/>
    <circle cx="91" cy="93" r="7" fill="#fff6ed"/>
    <path d="M37 34h30c18 0 24 8 24 22v37" fill="none" stroke="#fff6ed" stroke-width="8" stroke-linecap="round" stroke-linejoin="round" opacity="0.72"/>
  </g>
  <text x="144" y="78" fill="#12201d" font-family="Roboto, Helvetica Neue, Arial, sans-serif" font-size="48" font-weight="800" letter-spacing="0">PoDorel</text>
  <text x="147" y="103" fill="#496662" font-family="Roboto, Helvetica Neue, Arial, sans-serif" font-size="17" font-weight="700" letter-spacing="0">rootless Podman operations</text>
</svg>
